# xmcd
#
# Track frame offsets:
#	150
#	11056
#	22874
#	33829
#	45255
#	54273
#	68425
#	79534
#	91545
#	104180
#	115646
#	128023
#	139355
#	150773
#	161113
#	172652
#	182482
#	189871
#	200970
#	212152
#	223483
#	234677
#	246167
#	255382
#
# Disc length: 3542
#
# Revision: 1
# Processed by: cddbd v1.5.1PL0 Copyright (c) Steve Scherf et al.
# Submitted via: EasyCDDAExtractor 4.5.2.1
# Normalized: r0:TDELIM( - )
#
DISCID=320dd418
DTITLE=Various Artist - Rare and Unreleased Vol 13
DYEAR=1900
DGENRE=Oldies
TTITLE0=Marvels - So Young, So sweet
TTITLE1=Chanticlairs - Baby Please
TTITLE2=Emeralds - Red Top(unr)
TTITLE3=Crescendos - Finders Keepers
TTITLE4=Epics - The Bells Are Ringing
TTITLE5=Four Knights - Put Another Chair At the table
TTITLE6=Wildwoods - When The Swallows Come Back To Capristrano
TTITLE7=Cor-Dons - Is She The One
TTITLE8=Drifters - I'm The Caring Kind
TTITLE9=Heartbreakers - You Had Time
TTITLE10=Roy Perkins and group - You're Gone
TTITLE11=Ramblers - The Heaven And Earth
TTITLE12=Strangers - Eyes(unr)
TTITLE13=Starfires - Yearning For You
TTITLE14=Harptones - Sunset
TTITLE15=Sweet Teens (Faith Taylor and the) - Won't Someone Tell Me Why
TTITLE16=Bobby Pedrick and group - I'm Scared
TTITLE17=Kool Gents - Come To Me
TTITLE18=Suedes - Girl To Love(unr)
TTITLE19=Pyramids (Ruby Whitaker and the) - I Don't Want To Set The World On fire
TTITLE20=Travelers - Come To Me
TTITLE21=Delighters (Donald Jenkins and the) - Somebody Help Me
TTITLE22=Progressions - Someday
TTITLE23=Combinations - Just One More Chance
EXTD=
EXTT0=
EXTT1=
EXTT2=
EXTT3=
EXTT4=
EXTT5=
EXTT6=
EXTT7=
EXTT8=
EXTT9=
EXTT10=
EXTT11=
EXTT12=
EXTT13=
EXTT14=
EXTT15=
EXTT16=
EXTT17=
EXTT18=
EXTT19=
EXTT20=
EXTT21=
EXTT22=
EXTT23=
PLAYORDER=
